<svg version="1.1" id="Layer_1" xmlns="http://www.w3.org/2000/svg" xmlns:xlink="http://www.w3.org/1999/xlink" x="0px" y="0px"
	 width="100%" viewBox="0 0 484 232" enable-background="new 0 0 484 232" xml:space="preserve">
<path fill="#DFEEFE" opacity="1.000000" stroke="none" 
	d="
M297.000000,233.000000 
	C198.000000,233.000000 99.500000,233.000000 1.000000,233.000000 
	C1.000000,155.666672 1.000000,78.333336 1.000000,1.000000 
	C162.333328,1.000000 323.666656,1.000000 485.000000,1.000000 
	C485.000000,78.333336 485.000000,155.666672 485.000000,233.000000 
	C422.500000,233.000000 360.000000,233.000000 297.000000,233.000000 
M99.179779,82.965759 
	C89.871719,74.421417 80.563660,65.877068 71.255600,57.332726 
	C70.738113,57.781841 70.220619,58.230961 69.703125,58.680077 
	C70.314224,59.874294 70.779121,61.175323 71.560623,62.245056 
	C75.980667,68.295334 80.536057,74.247498 84.904526,80.334160 
	C85.984489,81.838890 86.541313,83.719101 87.882278,86.591057 
	C76.561790,79.984627 66.740219,74.252930 56.918640,68.521233 
	C56.575134,69.034988 56.231628,69.548744 55.888123,70.062508 
	C64.048203,77.620224 72.208282,85.177940 80.368362,92.735657 
	C80.006554,93.168724 79.644745,93.601791 79.282936,94.034866 
	C69.296135,89.804550 59.498516,84.994736 48.872471,82.722610 
	C48.670921,83.182327 48.469368,83.642044 48.267818,84.101768 
	C58.397339,90.553078 68.526863,97.004395 78.656387,103.455704 
	C78.534798,103.734436 78.413216,104.013161 78.291626,104.291885 
	C66.242676,102.344948 54.193733,100.398003 42.144787,98.451065 
	C42.038700,99.008476 41.932617,99.565895 41.826534,100.123314 
	C54.745281,105.214096 67.664032,110.304878 80.582779,115.395660 
	C80.531357,115.653763 80.479942,115.911865 80.428520,116.169968 
	C66.188896,116.990555 51.949272,117.811150 37.709648,118.631737 
	C37.691769,119.223663 37.673893,119.815582 37.656017,120.407509 
	C50.193924,122.262489 62.731827,124.117470 75.269730,125.972450 
	C75.239975,126.242455 75.210213,126.512459 75.180450,126.782463 
	C62.455509,130.028244 49.730564,133.274033 37.005615,136.519806 
	C37.098907,137.014847 37.192196,137.509888 37.285488,138.004929 
	C49.543644,137.440643 61.801800,136.876343 74.059959,136.312042 
	C74.109879,136.553864 74.159790,136.795670 74.209709,137.037491 
	C63.390831,142.032700 52.571953,147.027908 41.753075,152.023117 
	C41.927574,152.525009 42.102074,153.026901 42.276573,153.528793 
	C54.881264,150.736450 67.485947,147.944107 80.090637,145.151749 
	C80.164986,145.408447 80.239334,145.665131 80.313675,145.921829 
	C70.424843,152.819702 60.536011,159.717590 50.647175,166.615463 
	C50.992237,167.220825 51.337299,167.826172 51.682362,168.431534 
	C63.577374,163.473618 75.472382,158.515717 87.367393,153.557816 
	C87.613861,154.044830 87.860329,154.531860 88.106804,155.018890 
	C79.428894,164.459671 70.750984,173.900467 62.073078,183.341248 
	C62.502563,183.874420 62.932049,184.407578 63.361534,184.940750 
	C72.694939,178.295425 82.028336,171.650116 91.361732,165.004791 
	C91.673805,165.278778 91.985878,165.552765 92.297951,165.826752 
	C86.619720,175.265411 80.941483,184.704071 75.263252,194.142746 
	C75.902901,194.591019 76.542557,195.039291 77.182205,195.487564 
	C84.218559,188.020462 91.254913,180.553375 98.291267,173.086273 
	C98.660477,173.288239 99.029686,173.490204 99.398895,173.692169 
	C95.791122,183.245483 92.183350,192.798813 88.575584,202.352142 
	C89.253571,202.691391 89.931557,203.030640 90.609543,203.369888 
	C96.500244,194.378067 102.390953,185.386230 108.281654,176.394409 
	C108.697784,176.513367 109.113922,176.632339 109.530052,176.751297 
	C107.525665,189.360840 105.521278,201.970383 103.516891,214.579926 
	C103.879150,214.675873 104.241402,214.771835 104.603661,214.867798 
	C109.943214,201.237823 115.282761,187.607864 120.622307,173.977905 
	C120.878006,174.045258 121.133698,174.112625 121.389389,174.179977 
	C122.212273,187.400330 123.035156,200.620667 123.858032,213.841003 
	C124.629662,213.857941 125.401283,213.874863 126.172913,213.891800 
	C127.973656,202.075150 129.774399,190.258499 131.575134,178.441849 
	C131.893875,178.412277 132.212616,178.382706 132.531357,178.353134 
	C135.747238,191.039124 138.963104,203.725113 142.178986,216.411118 
	C142.375900,216.353256 142.572815,216.295395 142.769730,216.237534 
	C142.769730,204.036270 142.769730,191.835007 142.769730,178.472626 
	C147.835678,189.753937 152.467056,200.067474 157.098419,210.381012 
	C157.931641,207.407013 157.870712,204.756287 157.356323,202.196716 
	C155.553070,193.223831 153.593582,184.282318 152.121307,174.912399 
	C152.264023,174.773666 152.406754,174.634933 153.084763,174.904282 
	C159.269928,183.769089 165.455093,192.633911 171.640259,201.498718 
	C172.360367,201.107300 173.080475,200.715897 173.800583,200.324493 
	C168.887314,189.001114 163.974045,177.677750 159.060776,166.354370 
	C159.479004,165.982773 159.897232,165.611176 160.315445,165.239563 
	C165.045486,169.617722 169.727448,174.049316 174.519028,178.359039 
	C179.341782,182.696838 184.273529,186.913452 189.157516,191.183167 
	C189.628525,190.757111 190.099533,190.331055 190.570557,189.904984 
	C183.621933,180.344437 176.673325,170.783875 169.724716,161.223328 
	C169.903458,160.950455 170.082214,160.677582 170.260956,160.404724 
	C180.275391,166.336044 190.289825,172.267380 200.304260,178.198700 
	C200.668884,177.783524 201.033508,177.368347 201.398117,176.953186 
	C195.321823,168.574463 186.431534,162.826508 178.489197,154.738052 
	C180.669815,155.029465 181.838989,154.979813 182.851746,155.353760 
	C190.650146,158.233307 198.403961,161.234131 206.213623,164.082047 
	C207.199066,164.441406 208.428680,164.131195 209.545166,164.131195 
	C209.639130,163.730240 209.733093,163.329269 209.827057,162.928314 
	C199.803818,156.503616 189.780579,150.078903 179.757324,143.654205 
	C179.887833,143.405182 180.018341,143.156174 180.148834,142.907150 
	C191.703583,144.954620 203.258316,147.002075 214.813049,149.049545 
	C215.048676,148.278564 215.284302,147.507599 215.519928,146.736618 
	C203.149780,141.860138 190.779633,136.983673 178.409485,132.107208 
	C191.757004,130.399384 204.999146,131.031952 217.952576,128.729263 
	C217.971786,128.056885 217.991013,127.384521 218.010223,126.712158 
	C206.578964,124.962173 195.147705,123.212189 183.716446,121.462204 
	C183.715179,121.207565 183.713913,120.952927 183.712646,120.698296 
	C196.198120,117.539391 208.683594,114.380486 221.169067,111.221588 
	C221.067230,110.987579 220.965393,110.753571 220.863556,110.519562 
	C209.127884,110.519562 197.392212,110.519562 184.563019,110.519562 
	C196.846039,104.890030 208.100433,99.731941 219.354828,94.573853 
	C219.217102,94.195953 219.079376,93.818047 218.941635,93.440147 
	C205.527542,96.420059 192.113449,99.399971 178.699356,102.379883 
	C178.665237,102.147552 178.631104,101.915230 178.596985,101.682899 
	C187.958374,95.075432 197.319763,88.467964 206.681152,81.860497 
	C206.292191,81.176933 205.903214,80.493370 205.514252,79.809807 
	C194.076462,84.659622 182.638657,89.509445 171.200851,94.359268 
	C171.007874,93.995644 170.814880,93.632019 170.621902,93.268394 
	C178.923355,83.939568 187.224823,74.610733 195.526276,65.281906 
	C195.045105,64.721741 194.563934,64.161583 194.082764,63.601421 
	C184.984024,70.139458 175.885300,76.677490 166.786575,83.215530 
	C166.610764,82.924103 166.434952,82.632675 166.259155,82.341248 
	C172.184082,72.435226 178.109024,62.529198 184.033966,52.623169 
	C183.474686,52.183434 182.915405,51.743698 182.356110,51.303963 
	C175.306046,58.728321 168.255966,66.152679 161.205902,73.577042 
	C160.808228,73.232788 160.410538,72.888527 160.012863,72.544273 
	C163.604767,62.982609 167.196671,53.420944 170.788574,43.859276 
	C170.139481,43.559067 169.490387,43.258858 168.841293,42.958652 
	C162.489792,52.922398 156.138290,62.886147 149.786789,72.849899 
	C149.837341,66.424118 151.059570,60.579494 152.021652,54.692356 
	C152.947601,49.026367 153.604523,43.316410 154.379639,37.625771 
	C153.750671,37.509094 153.121719,37.392414 152.492752,37.275734 
	C147.681763,49.707798 142.870773,62.139862 138.059784,74.571922 
	C137.771927,74.503258 137.484055,74.434586 137.196198,74.365913 
	C136.463196,60.369865 135.730194,46.373814 134.997192,32.377762 
	C134.364853,32.363075 133.732498,32.348392 133.100159,32.333706 
	C131.212280,44.236591 129.324402,56.139481 127.436531,68.042366 
	C127.058342,68.012848 126.680145,67.983330 126.301949,67.953812 
	C123.047874,55.333813 119.793793,42.713818 116.244888,28.950426 
	C116.244888,42.897896 116.244888,55.480541 116.244888,68.495071 
	C111.369164,58.025032 106.625999,47.839642 101.882835,37.654251 
	C101.236763,37.893497 100.590691,38.132748 99.944618,38.371998 
	C102.440041,49.520611 104.935455,60.669228 107.430870,71.817841 
	C106.982590,71.957047 106.534309,72.096245 106.086029,72.235443 
	C99.584862,63.275307 93.083702,54.315170 86.582535,45.355030 
	C85.998718,45.699532 85.414902,46.044037 84.831078,46.388538 
	C85.405678,47.974609 85.896790,49.596992 86.568336,51.140892 
	C91.141121,61.653835 95.751900,72.150261 100.081367,82.922630 
	C100.081367,82.922630 99.814568,83.195465 99.179779,82.965759 
M256.339355,150.697266 
	C264.620911,151.076324 271.551666,148.558121 275.463928,140.798859 
	C279.209595,133.369995 277.538086,126.704018 271.878510,120.720703 
	C271.129578,119.928970 271.281158,117.711098 271.757050,116.428810 
	C274.745789,108.375092 269.918427,100.624702 261.250580,100.119957 
	C256.778961,99.859566 252.267136,100.259941 247.799911,99.963554 
	C244.054153,99.715034 242.944473,101.037384 242.996658,104.760124 
	C243.192245,118.714272 243.062851,132.672821 243.097153,146.629639 
	C243.100220,147.876541 243.405487,149.122681 243.613815,150.697296 
	C247.786942,150.697296 251.586853,150.697296 256.339355,150.697266 
M397.967072,145.366852 
	C398.669647,142.485733 400.431854,141.388809 403.426880,141.635147 
	C406.400665,141.879715 409.421661,141.851898 412.400848,141.642899 
	C415.286041,141.440506 416.879852,142.377274 418.022491,145.203629 
	C420.543457,151.439346 423.200958,152.283188 430.183380,149.480118 
	C423.051239,132.741745 415.922821,116.012131 408.147919,97.765266 
	C400.360138,116.048668 393.189728,132.882660 385.986450,149.793854 
	C393.896210,151.850540 395.222015,151.395447 397.967072,145.366852 
M338.602386,116.054955 
	C327.847595,119.248871 322.626129,128.253799 325.442902,138.749847 
	C328.010284,148.316620 338.945709,153.956543 349.473480,151.143585 
	C356.843384,149.174377 357.553467,147.451904 353.940948,140.306763 
	C342.774078,145.041367 337.686157,144.212677 335.185883,136.686249 
	C339.300995,136.686249 343.229980,136.686234 347.158936,136.686234 
	C351.267822,136.686234 355.376740,136.686249 359.359894,136.686249 
	C361.585632,123.431030 352.107544,113.934181 338.602386,116.054955 
M379.018707,137.500671 
	C379.018707,133.391693 379.018707,129.282730 379.018707,125.414101 
	C382.022888,124.120232 385.785492,125.894417 385.875061,120.735161 
	C385.968933,115.327843 381.894958,117.084312 379.544006,115.998787 
	C377.539825,105.804482 378.876831,103.609024 386.884521,104.158508 
	C387.055389,101.413651 390.480682,98.041702 385.432861,96.369034 
	C377.238251,93.653625 369.659424,99.005325 369.283752,107.622513 
	C369.162720,110.398926 369.264801,113.185066 369.264801,115.805473 
	C362.154633,117.311546 362.035553,117.507935 363.618713,124.261673 
	C365.294647,124.574883 367.024048,124.898087 369.302124,125.323830 
	C369.302124,133.784561 369.302124,142.020569 369.302124,150.314835 
	C372.817474,150.314835 375.709137,150.314835 379.018738,150.314835 
	C379.018738,146.109634 379.018738,142.301056 379.018707,137.500671 
M438.763489,100.112976 
	C438.125854,101.438370 436.945892,102.758842 436.933838,104.089905 
	C436.802490,118.571838 436.844543,133.055450 436.878204,147.538528 
	C436.880371,148.462891 437.203857,149.386505 437.445160,150.667923 
	C440.009125,150.667923 442.384308,150.997528 444.592072,150.532425 
	C445.739716,150.290634 447.437347,148.655716 447.450043,147.632294 
	C447.633972,132.818558 447.643738,118.000755 447.425476,103.187904 
	C447.409821,102.125687 445.457947,100.701332 444.117859,100.161377 
	C442.829803,99.642395 441.166870,100.053909 438.763489,100.112976 
M283.345642,135.492477 
	C283.345917,139.150452 283.515869,142.818634 283.296234,146.463364 
	C283.097260,149.765610 284.428925,150.587189 287.607941,150.811798 
	C292.446503,151.153671 294.306427,149.481232 293.651367,144.680527 
	C293.384094,142.721741 293.606262,140.696060 293.607452,138.700806 
	C293.613800,127.948662 294.389526,126.912613 304.436584,124.233582 
	C304.038177,115.142715 302.999847,114.719093 293.298828,119.893456 
	C291.920013,115.275368 288.093689,116.734123 285.164978,117.206116 
	C284.295380,117.346260 283.551422,120.637413 283.425720,122.529617 
	C283.161743,126.502563 283.345978,130.505295 283.345642,135.492477 
M319.416565,144.246063 
	C319.413605,136.278427 319.332092,128.309723 319.439972,120.343597 
	C319.495911,116.210732 316.757904,116.538445 314.032928,116.504448 
	C311.395752,116.471535 309.080078,116.362747 309.153473,120.220024 
	C309.323883,129.180374 309.159882,138.146744 309.264038,147.109116 
	C309.277283,148.249344 309.756958,149.956970 310.575378,150.419144 
	C314.864136,152.841003 319.302155,150.101959 319.416565,144.246063 
M316.615967,111.442162 
	C317.531067,109.375076 319.146790,107.294319 319.106812,105.245857 
	C319.081573,103.951797 316.721985,101.937668 315.155914,101.655991 
	C313.609772,101.377884 311.127136,102.426331 310.192352,103.716599 
	C309.251312,105.015549 308.882172,108.121155 309.741638,109.018761 
	C311.171509,110.512054 313.782837,110.874031 316.615967,111.442162 
z"/>
<path fill="#2094FF" opacity="1.000000" stroke="none" 
	d="
M151.693436,175.328903 
	C153.593582,184.282318 155.553070,193.223831 157.356323,202.196716 
	C157.870712,204.756287 157.931641,207.407013 157.098419,210.381012 
	C152.467056,200.067474 147.835678,189.753937 142.769730,178.472626 
	C142.769730,191.835007 142.769730,204.036270 142.769730,216.237534 
	C142.572815,216.295395 142.375900,216.353256 142.178986,216.411118 
	C138.963104,203.725113 135.747238,191.039124 132.531357,178.353134 
	C132.212616,178.382706 131.893875,178.412277 131.575134,178.441849 
	C129.774399,190.258499 127.973656,202.075150 126.172913,213.891800 
	C125.401283,213.874863 124.629662,213.857941 123.858032,213.841003 
	C123.035156,200.620667 122.212273,187.400330 121.389389,174.179977 
	C121.133698,174.112625 120.878006,174.045258 120.622307,173.977905 
	C115.282761,187.607864 109.943214,201.237823 104.603661,214.867798 
	C104.241402,214.771835 103.879150,214.675873 103.516891,214.579926 
	C105.521278,201.970383 107.525665,189.360840 109.530052,176.751297 
	C109.113922,176.632339 108.697784,176.513367 108.281654,176.394409 
	C102.390953,185.386230 96.500244,194.378067 90.609543,203.369888 
	C89.931557,203.030640 89.253571,202.691391 88.575584,202.352142 
	C92.183350,192.798813 95.791122,183.245483 99.398895,173.692169 
	C99.029686,173.490204 98.660477,173.288239 98.291267,173.086273 
	C91.254913,180.553375 84.218559,188.020462 77.182205,195.487564 
	C76.542557,195.039291 75.902901,194.591019 75.263252,194.142746 
	C80.941483,184.704071 86.619720,175.265411 92.297951,165.826752 
	C91.985878,165.552765 91.673805,165.278778 91.361732,165.004791 
	C82.028336,171.650116 72.694939,178.295425 63.361534,184.940750 
	C62.932049,184.407578 62.502563,183.874420 62.073078,183.341248 
	C70.750984,173.900467 79.428894,164.459671 88.106804,155.018890 
	C87.860329,154.531860 87.613861,154.044830 87.367393,153.557816 
	C75.472382,158.515717 63.577374,163.473618 51.682362,168.431534 
	C51.337299,167.826172 50.992237,167.220825 50.647175,166.615463 
	C60.536011,159.717590 70.424843,152.819702 80.313675,145.921829 
	C80.239334,145.665131 80.164986,145.408447 80.090637,145.151749 
	C67.485947,147.944107 54.881264,150.736450 42.276573,153.528793 
	C42.102074,153.026901 41.927574,152.525009 41.753075,152.023117 
	C52.571953,147.027908 63.390831,142.032700 74.209709,137.037491 
	C74.159790,136.795670 74.109879,136.553864 74.059959,136.312042 
	C61.801800,136.876343 49.543644,137.440643 37.285488,138.004929 
	C37.192196,137.509888 37.098907,137.014847 37.005615,136.519806 
	C49.730564,133.274033 62.455509,130.028244 75.180450,126.782463 
	C75.210213,126.512459 75.239975,126.242455 75.269730,125.972450 
	C62.731827,124.117470 50.193924,122.262489 37.656017,120.407509 
	C37.673893,119.815582 37.691769,119.223663 37.709648,118.631737 
	C51.949272,117.811150 66.188896,116.990555 80.428520,116.169968 
	C80.479942,115.911865 80.531357,115.653763 80.582779,115.395660 
	C67.664032,110.304878 54.745281,105.214096 41.826534,100.123314 
	C41.932617,99.565895 42.038700,99.008476 42.144787,98.451065 
	C54.193733,100.398003 66.242676,102.344948 78.291626,104.291885 
	C78.413216,104.013161 78.534798,103.734436 78.656387,103.455704 
	C68.526863,97.004395 58.397339,90.553078 48.267818,84.101768 
	C48.469368,83.642044 48.670921,83.182327 48.872471,82.722610 
	C59.498516,84.994736 69.296135,89.804550 79.282936,94.034866 
	C79.644745,93.601791 80.006554,93.168724 80.368362,92.735657 
	C72.208282,85.177940 64.048203,77.620224 55.888123,70.062508 
	C56.231628,69.548744 56.575134,69.034988 56.918640,68.521233 
	C66.740219,74.252930 76.561790,79.984627 87.882278,86.591057 
	C86.541313,83.719101 85.984489,81.838890 84.904526,80.334160 
	C80.536057,74.247498 75.980667,68.295334 71.560623,62.245056 
	C70.779121,61.175323 70.314224,59.874294 69.703125,58.680077 
	C70.220619,58.230961 70.738113,57.781841 71.255600,57.332726 
	C80.563660,65.877068 89.871719,74.421417 99.613754,83.303284 
	C100.268028,83.638023 100.488319,83.635231 100.708618,83.632446 
	C100.589211,83.305634 100.469810,82.978821 100.350403,82.652016 
	C95.751900,72.150261 91.141121,61.653835 86.568336,51.140892 
	C85.896790,49.596992 85.405678,47.974609 84.831078,46.388538 
	C85.414902,46.044037 85.998718,45.699532 86.582535,45.355030 
	C93.083702,54.315170 99.584862,63.275307 106.086029,72.235443 
	C106.534309,72.096245 106.982590,71.957047 107.430870,71.817841 
	C104.935455,60.669228 102.440041,49.520611 99.944618,38.371998 
	C100.590691,38.132748 101.236763,37.893497 101.882835,37.654251 
	C106.625999,47.839642 111.369164,58.025032 116.244888,68.495071 
	C116.244888,55.480541 116.244888,42.897896 116.244888,28.950426 
	C119.793793,42.713818 123.047874,55.333813 126.301949,67.953812 
	C126.680145,67.983330 127.058342,68.012848 127.436531,68.042366 
	C129.324402,56.139481 131.212280,44.236591 133.100159,32.333706 
	C133.732498,32.348392 134.364853,32.363075 134.997192,32.377762 
	C135.730194,46.373814 136.463196,60.369865 137.196198,74.365913 
	C137.484055,74.434586 137.771927,74.503258 138.059784,74.571922 
	C142.870773,62.139862 147.681763,49.707798 152.492752,37.275734 
	C153.121719,37.392414 153.750671,37.509094 154.379639,37.625771 
	C153.604523,43.316410 152.947601,49.026367 152.021652,54.692356 
	C151.059570,60.579494 149.837341,66.424118 149.786789,72.849899 
	C156.138290,62.886147 162.489792,52.922398 168.841293,42.958652 
	C169.490387,43.258858 170.139481,43.559067 170.788574,43.859276 
	C167.196671,53.420944 163.604767,62.982609 160.012863,72.544273 
	C160.410538,72.888527 160.808228,73.232788 161.205902,73.577042 
	C168.255966,66.152679 175.306046,58.728321 182.356110,51.303963 
	C182.915405,51.743698 183.474686,52.183434 184.033966,52.623169 
	C178.109024,62.529198 172.184082,72.435226 166.259155,82.341248 
	C166.434952,82.632675 166.610764,82.924103 166.786575,83.215530 
	C175.885300,76.677490 184.984024,70.139458 194.082764,63.601421 
	C194.563934,64.161583 195.045105,64.721741 195.526276,65.281906 
	C187.224823,74.610733 178.923355,83.939568 170.621902,93.268394 
	C170.814880,93.632019 171.007874,93.995644 171.200851,94.359268 
	C182.638657,89.509445 194.076462,84.659622 205.514252,79.809807 
	C205.903214,80.493370 206.292191,81.176933 206.681152,81.860497 
	C197.319763,88.467964 187.958374,95.075432 178.596985,101.682899 
	C178.631104,101.915230 178.665237,102.147552 178.699356,102.379883 
	C192.113449,99.399971 205.527542,96.420059 218.941635,93.440147 
	C219.079376,93.818047 219.217102,94.195953 219.354828,94.573853 
	C208.100433,99.731941 196.846039,104.890030 184.563019,110.519562 
	C197.392212,110.519562 209.127884,110.519562 220.863556,110.519562 
	C220.965393,110.753571 221.067230,110.987579 221.169067,111.221588 
	C208.683594,114.380486 196.198120,117.539391 183.712646,120.698296 
	C183.713913,120.952927 183.715179,121.207565 183.716446,121.462204 
	C195.147705,123.212189 206.578964,124.962173 218.010223,126.712158 
	C217.991013,127.384521 217.971786,128.056885 217.952576,128.729263 
	C204.999146,131.031952 191.757004,130.399384 178.409485,132.107208 
	C190.779633,136.983673 203.149780,141.860138 215.519928,146.736618 
	C215.284302,147.507599 215.048676,148.278564 214.813049,149.049545 
	C203.258316,147.002075 191.703583,144.954620 180.148834,142.907150 
	C180.018341,143.156174 179.887833,143.405182 179.757324,143.654205 
	C189.780579,150.078903 199.803818,156.503616 209.827057,162.928314 
	C209.733093,163.329269 209.639130,163.730240 209.545166,164.131195 
	C208.428680,164.131195 207.199066,164.441406 206.213623,164.082047 
	C198.403961,161.234131 190.650146,158.233307 182.851746,155.353760 
	C181.838989,154.979813 180.669815,155.029465 178.489197,154.738052 
	C186.431534,162.826508 195.321823,168.574463 201.398117,176.953186 
	C201.033508,177.368347 200.668884,177.783524 200.304260,178.198700 
	C190.289825,172.267380 180.275391,166.336044 170.260956,160.404724 
	C170.082214,160.677582 169.903458,160.950455 169.724716,161.223328 
	C176.673325,170.783875 183.621933,180.344437 190.570557,189.904984 
	C190.099533,190.331055 189.628525,190.757111 189.157516,191.183167 
	C184.273529,186.913452 179.341782,182.696838 174.519028,178.359039 
	C169.727448,174.049316 165.045486,169.617722 160.315445,165.239563 
	C159.897232,165.611176 159.479004,165.982773 159.060776,166.354370 
	C163.974045,177.677750 168.887314,189.001114 173.800583,200.324493 
	C173.080475,200.715897 172.360367,201.107300 171.640259,201.498718 
	C165.455093,192.633911 159.269928,183.769089 152.688934,174.446503 
	C151.656647,173.899963 151.020203,173.811218 150.383759,173.722473 
	C150.820312,174.257950 151.256866,174.793427 151.693436,175.328903 
M107.422302,74.418175 
	C107.495209,74.079102 107.568108,73.740036 107.641014,73.400963 
	C107.464104,73.609406 107.287193,73.817848 107.422302,74.418175 
M169.583603,94.797104 
	C169.694702,94.716957 169.805786,94.636810 169.916885,94.556664 
	C169.827621,94.452881 169.746735,94.277130 169.646744,94.265495 
	C169.546280,94.253799 169.426804,94.405533 169.583603,94.797104 
z"/>
<path fill="#2395FF" opacity="1.000000" stroke="none" 
	d="
M255.863068,150.697281 
	C251.586853,150.697296 247.786942,150.697296 243.613815,150.697296 
	C243.405487,149.122681 243.100220,147.876541 243.097153,146.629639 
	C243.062851,132.672821 243.192245,118.714272 242.996658,104.760124 
	C242.944473,101.037384 244.054153,99.715034 247.799911,99.963554 
	C252.267136,100.259941 256.778961,99.859566 261.250580,100.119957 
	C269.918427,100.624702 274.745789,108.375092 271.757050,116.428810 
	C271.281158,117.711098 271.129578,119.928970 271.878510,120.720703 
	C277.538086,126.704018 279.209595,133.369995 275.463928,140.798859 
	C271.551666,148.558121 264.620911,151.076324 255.863068,150.697281 
M253.360123,140.651337 
	C257.452515,142.811890 261.189117,141.624237 264.212097,138.787369 
	C266.957703,136.210815 267.504852,132.721603 265.839539,129.171509 
	C264.066711,125.392250 260.893646,124.243950 256.893494,124.220337 
	C253.784592,124.201988 252.832993,125.496292 252.971970,128.406754 
	C253.153442,132.207001 253.067444,136.020035 253.360123,140.651337 
M252.993225,111.680817 
	C253.118698,117.005913 254.769211,118.549713 259.386017,116.710747 
	C261.024231,116.058220 263.146637,113.101906 262.793396,111.817238 
	C262.298462,110.017303 259.909241,108.155273 257.937744,107.498749 
	C255.706772,106.755798 252.686005,106.806107 252.993225,111.680817 
z"/>
<path fill="#2495FF" opacity="1.000000" stroke="none" 
	d="
M397.810425,145.739716 
	C395.222015,151.395447 393.896210,151.850540 385.986450,149.793854 
	C393.189728,132.882660 400.360138,116.048668 408.147919,97.765266 
	C415.922821,116.012131 423.051239,132.741745 430.183380,149.480118 
	C423.200958,152.283188 420.543457,151.439346 418.022491,145.203629 
	C416.879852,142.377274 415.286041,141.440506 412.400848,141.642899 
	C409.421661,141.851898 406.400665,141.879715 403.426880,141.635147 
	C400.431854,141.388809 398.669647,142.485733 397.810425,145.739716 
M407.686401,121.734283 
	C406.090912,125.461754 404.495422,129.189224 402.747437,133.272919 
	C406.612701,133.272919 409.612762,133.272919 413.195892,133.272919 
	C411.405487,129.028870 409.870453,125.390106 407.686401,121.734283 
z"/>
<path fill="#2596FF" opacity="1.000000" stroke="none" 
	d="
M338.990997,115.962166 
	C352.107544,113.934181 361.585632,123.431030 359.359894,136.686249 
	C355.376740,136.686249 351.267822,136.686234 347.158936,136.686234 
	C343.229980,136.686234 339.300995,136.686249 335.185883,136.686249 
	C337.686157,144.212677 342.774078,145.041367 353.940948,140.306763 
	C357.553467,147.451904 356.843384,149.174377 349.473480,151.143585 
	C338.945709,153.956543 328.010284,148.316620 325.442902,138.749847 
	C322.626129,128.253799 327.847595,119.248871 338.990997,115.962166 
M335.604828,129.786972 
	C340.485229,129.786972 345.365662,129.786972 350.873352,129.786972 
	C348.832184,125.093018 345.955627,122.878906 341.773010,123.400009 
	C338.347290,123.826805 334.999542,125.062958 335.604828,129.786972 
z"/>
<path fill="#2797FF" opacity="1.000000" stroke="none" 
	d="
M379.018738,137.996567 
	C379.018738,142.301056 379.018738,146.109634 379.018738,150.314835 
	C375.709137,150.314835 372.817474,150.314835 369.302124,150.314835 
	C369.302124,142.020569 369.302124,133.784561 369.302124,125.323830 
	C367.024048,124.898087 365.294647,124.574883 363.618713,124.261673 
	C362.035553,117.507935 362.154633,117.311546 369.264801,115.805473 
	C369.264801,113.185066 369.162720,110.398926 369.283752,107.622513 
	C369.659424,99.005325 377.238251,93.653625 385.432861,96.369034 
	C390.480682,98.041702 387.055389,101.413651 386.884521,104.158508 
	C378.876831,103.609024 377.539825,105.804482 379.544006,115.998787 
	C381.894958,117.084312 385.968933,115.327843 385.875061,120.735161 
	C385.785492,125.894417 382.022888,124.120232 379.018707,125.414101 
	C379.018707,129.282730 379.018707,133.391693 379.018738,137.996567 
z"/>
<path fill="#1F93FF" opacity="1.000000" stroke="none" 
	d="
M439.216064,100.084763 
	C441.166870,100.053909 442.829803,99.642395 444.117859,100.161377 
	C445.457947,100.701332 447.409821,102.125687 447.425476,103.187904 
	C447.643738,118.000755 447.633972,132.818558 447.450043,147.632294 
	C447.437347,148.655716 445.739716,150.290634 444.592072,150.532425 
	C442.384308,150.997528 440.009125,150.667923 437.445160,150.667923 
	C437.203857,149.386505 436.880371,148.462891 436.878204,147.538528 
	C436.844543,133.055450 436.802490,118.571838 436.933838,104.089905 
	C436.945892,102.758842 438.125854,101.438370 439.216064,100.084763 
z"/>
<path fill="#2294FF" opacity="1.000000" stroke="none" 
	d="
M283.345947,134.994141 
	C283.345978,130.505295 283.161743,126.502563 283.425720,122.529617 
	C283.551422,120.637413 284.295380,117.346260 285.164978,117.206116 
	C288.093689,116.734123 291.920013,115.275368 293.298828,119.893456 
	C302.999847,114.719093 304.038177,115.142715 304.436584,124.233582 
	C294.389526,126.912613 293.613800,127.948662 293.607452,138.700806 
	C293.606262,140.696060 293.384094,142.721741 293.651367,144.680527 
	C294.306427,149.481232 292.446503,151.153671 287.607941,150.811798 
	C284.428925,150.587189 283.097260,149.765610 283.296234,146.463364 
	C283.515869,142.818634 283.345917,139.150452 283.345947,134.994141 
z"/>
<path fill="#2897FF" opacity="1.000000" stroke="none" 
	d="
M319.415985,144.708984 
	C319.302155,150.101959 314.864136,152.841003 310.575378,150.419144 
	C309.756958,149.956970 309.277283,148.249344 309.264038,147.109116 
	C309.159882,138.146744 309.323883,129.180374 309.153473,120.220024 
	C309.080078,116.362747 311.395752,116.471535 314.032928,116.504448 
	C316.757904,116.538445 319.495911,116.210732 319.439972,120.343597 
	C319.332092,128.309723 319.413605,136.278427 319.415985,144.708984 
z"/>
<path fill="#2A99FF" opacity="1.000000" stroke="none" 
	d="
M316.256287,111.577301 
	C313.782837,110.874031 311.171509,110.512054 309.741638,109.018761 
	C308.882172,108.121155 309.251312,105.015549 310.192352,103.716599 
	C311.127136,102.426331 313.609772,101.377884 315.155914,101.655991 
	C316.721985,101.937668 319.081573,103.951797 319.106812,105.245857 
	C319.146790,107.294319 317.531067,109.375076 316.256287,111.577301 
z"/>
<path fill="#DFEEFE" opacity="1.000000" stroke="none" 
	d="
M151.907379,175.120651 
	C151.256866,174.793427 150.820312,174.257950 150.383759,173.722473 
	C151.020203,173.811218 151.656647,173.899963 152.421295,174.242462 
	C152.406754,174.634933 152.264023,174.773666 151.907379,175.120651 
z"/>
<path fill="#DFEEFE" opacity="1.000000" stroke="none" 
	d="
M107.266296,74.222229 
	C107.287193,73.817848 107.464104,73.609406 107.641006,73.400963 
	C107.568108,73.740036 107.495209,74.079102 107.266296,74.222229 
z"/>
<path fill="#DFEEFE" opacity="1.000000" stroke="none" 
	d="
M169.449615,94.641373 
	C169.426804,94.405533 169.546280,94.253799 169.646744,94.265495 
	C169.746735,94.277130 169.827621,94.452881 169.916885,94.556664 
	C169.805786,94.636810 169.694702,94.716957 169.449615,94.641373 
z"/>
<path fill="#DFEEFE" opacity="1.000000" stroke="none" 
	d="
M100.215889,82.787323 
	C100.469810,82.978821 100.589211,83.305634 100.708618,83.632446 
	C100.488319,83.635231 100.268028,83.638023 99.931152,83.418137 
	C99.814568,83.195465 100.081367,82.922630 100.215889,82.787323 
z"/>
<path fill="#D1E7FE" opacity="1.000000" stroke="none" 
	d="
M253.228333,140.239441 
	C253.067444,136.020035 253.153442,132.207001 252.971970,128.406754 
	C252.832993,125.496292 253.784592,124.201988 256.893494,124.220337 
	C260.893646,124.243950 264.066711,125.392250 265.839539,129.171509 
	C267.504852,132.721603 266.957703,136.210815 264.212097,138.787369 
	C261.189117,141.624237 257.452515,142.811890 253.228333,140.239441 
z"/>
<path fill="#CDE5FE" opacity="1.000000" stroke="none" 
	d="
M252.994934,111.243408 
	C252.686005,106.806107 255.706772,106.755798 257.937744,107.498749 
	C259.909241,108.155273 262.298462,110.017303 262.793396,111.817238 
	C263.146637,113.101906 261.024231,116.058220 259.386017,116.710747 
	C254.769211,118.549713 253.118698,117.005913 252.994934,111.243408 
z"/>
<path fill="#BFDFFE" opacity="1.000000" stroke="none" 
	d="
M408.010925,121.742813 
	C409.870453,125.390106 411.405487,129.028870 413.195892,133.272919 
	C409.612762,133.272919 406.612701,133.272919 402.747437,133.272919 
	C404.495422,129.189224 406.090912,125.461754 408.010925,121.742813 
z"/>
<path fill="#C0E0FE" opacity="1.000000" stroke="none" 
	d="
M335.251892,129.667328 
	C334.999542,125.062958 338.347290,123.826805 341.773010,123.400009 
	C345.955627,122.878906 348.832184,125.093018 350.873352,129.786972 
	C345.365662,129.786972 340.485229,129.786972 335.251892,129.667328 
z"/>
</svg>